<!DOCTYPE svg PUBLIC "-//W3C//DTD SVG 1.1//EN" "http://www.w3.org/Graphics/SVG/1.1/DTD/svg11.dtd">
<!-- Uploaded to: SVG Repo, www.svgrepo.com, Transformed by: SVG Repo Mixer Tools -->
<svg fill="#000000" height="233px" width="233px" version="1.2" baseProfile="tiny" id="Layer_1" xmlns="http://www.w3.org/2000/svg" xmlns:xlink="http://www.w3.org/1999/xlink" viewBox="0 0 256.00 256.00" xml:space="preserve" stroke="#000000" stroke-width="0.00256" transform="rotate(0)">
<g id="SVGRepo_bgCarrier" stroke-width="0"/>
<g id="SVGRepo_tracerCarrier" stroke-linecap="round" stroke-linejoin="round" stroke="#ffffff" stroke-width="4.096"> <g id="XMLID_2_"> <path id="XMLID_6_" d="M154.6,130.5c6.9,1.9,13.9-2.1,15.9-8.9c1.9-6.9-2.1-13.9-8.9-15.9c-6.9-1.9-13.9,2.1-15.9,8.9 C143.8,121.5,147.8,128.6,154.6,130.5z"/> <path id="XMLID_3_" d="M250.8,40.3c0,0-39.7-2.6-130,2.9C54.2,47.3,0.2,55.9,0.2,55.9s23.2,8.6,21.1,39.6c0,0,32.1-5.8,47.4,21.1 l59.7-22.1l-1.5,40.8l-25.3,7.9c-2.2,0.7-4.1,1.9-5.6,3.4l-53.1,57.9c-3.1,3.4-2.9,8.7,0.5,11.8c3.4,3.1,8.7,2.9,11.8-0.5 l39.9-43.5l51.2-15.9l-0.3,0.2l8.5-2.7l8.5,8.5c1.3,1.3,3.1,2,5,1.9l28-1.6c3.5-0.2,6.3-3.3,6-6.8l0,0c-0.2-3.1-2.5-5.4-5.4-5.9 l-25.3-71.3l81.2-31.6C256.5,44.8,255.9,40.5,250.8,40.3z M190.3,149.9c-6.4,0.4-17,1-20.2,1.2c-3.2-3.3-16.1-16.1-16.1-16.1 c-0.2-0.2-0.5-0.3-0.7-0.4c-3.3-3.4-8.2-4.9-13-3.5l-7.4,2.3l1.5-41.2l31.2-11.6L190.3,149.9z"/> </g> </g>
<g id="SVGRepo_iconCarrier"> <g id="XMLID_2_"> <path id="XMLID_6_" d="M154.6,130.5c6.9,1.9,13.9-2.1,15.9-8.9c1.9-6.9-2.1-13.9-8.9-15.9c-6.9-1.9-13.9,2.1-15.9,8.9 C143.8,121.5,147.8,128.6,154.6,130.5z"/> <path id="XMLID_3_" d="M250.8,40.3c0,0-39.7-2.6-130,2.9C54.2,47.3,0.2,55.9,0.2,55.9s23.2,8.6,21.1,39.6c0,0,32.1-5.8,47.4,21.1 l59.7-22.1l-1.5,40.8l-25.3,7.9c-2.2,0.7-4.1,1.9-5.6,3.4l-53.1,57.9c-3.1,3.4-2.9,8.7,0.5,11.8c3.4,3.1,8.7,2.9,11.8-0.5 l39.9-43.5l51.2-15.9l-0.3,0.2l8.5-2.7l8.5,8.5c1.3,1.3,3.1,2,5,1.9l28-1.6c3.5-0.2,6.3-3.3,6-6.8l0,0c-0.2-3.1-2.5-5.4-5.4-5.9 l-25.3-71.3l81.2-31.6C256.5,44.8,255.9,40.5,250.8,40.3z M190.3,149.9c-6.4,0.4-17,1-20.2,1.2c-3.2-3.3-16.1-16.1-16.1-16.1 c-0.2-0.2-0.5-0.3-0.7-0.4c-3.3-3.4-8.2-4.9-13-3.5l-7.4,2.3l1.5-41.2l31.2-11.6L190.3,149.9z"/> </g> </g>
</svg>